<svg width="18" height="19" viewBox="0 0 18 19" fill="none" xmlns="http://www.w3.org/2000/svg">
<path d="M5.15003 0.646729H12.594C15.4298 0.646729 17.7339 2.95082 17.7339 5.78663V13.2306C17.7339 14.5938 17.1924 15.9012 16.2285 16.8651C15.2646 17.829 13.9572 18.3705 12.594 18.3705H5.15003C2.31423 18.3705 0.0101318 16.0664 0.0101318 13.2306V5.78663C0.0101318 4.42344 0.551656 3.11609 1.51557 2.15217C2.47949 1.18825 3.78685 0.646729 5.15003 0.646729ZM4.9728 2.41911C4.12668 2.41911 3.31522 2.75523 2.71692 3.35352C2.11863 3.95182 1.78251 4.76328 1.78251 5.60939V13.4079C1.78251 15.1714 3.20928 16.5981 4.9728 16.5981H12.7713C13.6174 16.5981 14.4288 16.262 15.0271 15.6637C15.6254 15.0654 15.9616 14.254 15.9616 13.4079V5.60939C15.9616 3.84587 14.5348 2.41911 12.7713 2.41911H4.9728ZM13.5245 3.74839C13.8183 3.74839 14.1001 3.8651 14.3078 4.07284C14.5156 4.28058 14.6323 4.56234 14.6323 4.85613C14.6323 5.14992 14.5156 5.43168 14.3078 5.63942C14.1001 5.84716 13.8183 5.96387 13.5245 5.96387C13.2307 5.96387 12.949 5.84716 12.7412 5.63942C12.5335 5.43168 12.4168 5.14992 12.4168 4.85613C12.4168 4.56234 12.5335 4.28058 12.7412 4.07284C12.949 3.8651 13.2307 3.74839 13.5245 3.74839ZM8.87203 5.07768C10.0472 5.07768 11.1742 5.54451 12.0052 6.37547C12.8362 7.20644 13.303 8.33347 13.303 9.50863C13.303 10.6838 12.8362 11.8108 12.0052 12.6418C11.1742 13.4727 10.0472 13.9396 8.87203 13.9396C7.69687 13.9396 6.56984 13.4727 5.73888 12.6418C4.90791 11.8108 4.44108 10.6838 4.44108 9.50863C4.44108 8.33347 4.90791 7.20644 5.73888 6.37547C6.56984 5.54451 7.69687 5.07768 8.87203 5.07768ZM8.87203 6.85006C8.16693 6.85006 7.49072 7.13016 6.99214 7.62873C6.49356 8.12731 6.21346 8.80353 6.21346 9.50863C6.21346 10.2137 6.49356 10.8899 6.99214 11.3885C7.49072 11.8871 8.16693 12.1672 8.87203 12.1672C9.57713 12.1672 10.2533 11.8871 10.7519 11.3885C11.2505 10.8899 11.5306 10.2137 11.5306 9.50863C11.5306 8.80353 11.2505 8.12731 10.7519 7.62873C10.2533 7.13016 9.57713 6.85006 8.87203 6.85006Z" fill="#FFBE7E"/>
</svg>
