<svg width="34" height="33" viewBox="0 0 34 33" fill="none" xmlns="http://www.w3.org/2000/svg">
<rect x="0.946045" y="0.582275" width="31.852" height="31.852" rx="15.926" stroke="#FFBE7E"/>
<path d="M13.15 7.64673H20.594C23.4298 7.64673 25.7339 9.95082 25.7339 12.7866V20.2306C25.7339 21.5938 25.1924 22.9012 24.2285 23.8651C23.2646 24.829 21.9572 25.3705 20.594 25.3705H13.15C10.3142 25.3705 8.01013 23.0664 8.01013 20.2306V12.7866C8.01013 11.4234 8.55166 10.1161 9.51557 9.15217C10.4795 8.18825 11.7868 7.64673 13.15 7.64673ZM12.9728 9.41911C12.1267 9.41911 11.3152 9.75523 10.7169 10.3535C10.1186 10.9518 9.78251 11.7633 9.78251 12.6094V20.4079C9.78251 22.1714 11.2093 23.5981 12.9728 23.5981H20.7713C21.6174 23.5981 22.4288 23.262 23.0271 22.6637C23.6254 22.0654 23.9616 21.254 23.9616 20.4079V12.6094C23.9616 10.8459 22.5348 9.41911 20.7713 9.41911H12.9728ZM21.5245 10.7484C21.8183 10.7484 22.1001 10.8651 22.3078 11.0728C22.5156 11.2806 22.6323 11.5623 22.6323 11.8561C22.6323 12.1499 22.5156 12.4317 22.3078 12.6394C22.1001 12.8472 21.8183 12.9639 21.5245 12.9639C21.2307 12.9639 20.949 12.8472 20.7412 12.6394C20.5335 12.4317 20.4168 12.1499 20.4168 11.8561C20.4168 11.5623 20.5335 11.2806 20.7412 11.0728C20.949 10.8651 21.2307 10.7484 21.5245 10.7484ZM16.872 12.0777C18.0472 12.0777 19.1742 12.5445 20.0052 13.3755C20.8362 14.2064 21.303 15.3335 21.303 16.5086C21.303 17.6838 20.8362 18.8108 20.0052 19.6418C19.1742 20.4727 18.0472 20.9396 16.872 20.9396C15.6969 20.9396 14.5698 20.4727 13.7389 19.6418C12.9079 18.8108 12.4411 17.6838 12.4411 16.5086C12.4411 15.3335 12.9079 14.2064 13.7389 13.3755C14.5698 12.5445 15.6969 12.0777 16.872 12.0777ZM16.872 13.8501C16.1669 13.8501 15.4907 14.1302 14.9921 14.6287C14.4936 15.1273 14.2135 15.8035 14.2135 16.5086C14.2135 17.2137 14.4936 17.8899 14.9921 18.3885C15.4907 18.8871 16.1669 19.1672 16.872 19.1672C17.5771 19.1672 18.2533 18.8871 18.7519 18.3885C19.2505 17.8899 19.5306 17.2137 19.5306 16.5086C19.5306 15.8035 19.2505 15.1273 18.7519 14.6287C18.2533 14.1302 17.5771 13.8501 16.872 13.8501Z" fill="#FFBE7E"/>
</svg>
